<svg xmlns="http://www.w3.org/2000/svg" width="220" height="220" viewBox="0 0 220 220" role="img">
  <title>Stat Grinder</title>
  <path d="M96.13,56.64L99.52,31.46L120.48,31.46L123.87,56.64L132.73,59.52L150.27,41.14L167.23,53.46L155.17,75.82L160.65,83.36L185.64,78.80L192.12,98.73L169.22,109.74L169.22,119.06L192.12,130.07L185.64,150.00L160.65,145.44L155.17,152.98L167.23,175.34L150.27,187.66L132.73,169.28L123.87,172.16L120.48,197.34L99.52,197.34L96.13,172.16L87.27,169.28L69.73,187.66L52.77,175.34L64.83,152.98L59.35,145.44L34.36,150.00L27.88,130.07L50.78,119.06L50.78,109.74L27.88,98.73L34.36,78.80L59.35,83.36L64.83,75.82L52.77,53.46L69.73,41.14L87.27,59.52Z M134.20,114.40 A24.2,24.2,0,1,0,85.80,114.40 A24.2,24.2,0,1,0,134.20,114.40Z"
    fill="#f5f4f0" fill-rule="evenodd"/>
  <polyline points="59.51,147.07 101.09,147.07 142.67,81.73 186.91,45.85"
    fill="none" stroke="#F5A524" stroke-width="15" stroke-linecap="round" stroke-linejoin="round"/>
  <path d="M186.91,45.85 L182.15,69.57 M186.91,45.85 L162.71,45.61"
    fill="none" stroke="#F5A524" stroke-width="15" stroke-linecap="round" stroke-linejoin="round"/>
</svg>
